<?xml version="1.0" standalone="no"?>
<!DOCTYPE svg PUBLIC "-//W3C//DTD SVG 20010904//EN"
 "http://www.w3.org/TR/2001/REC-SVG-20010904/DTD/svg10.dtd">
<svg version="1.0" xmlns="http://www.w3.org/2000/svg"
 width="535.000000pt" height="243.000000pt" viewBox="0 0 535.000000 243.000000"
 preserveAspectRatio="xMidYMid meet">

<g transform="translate(0.000000,243.000000) scale(0.100000,-0.100000)"
fill="#000000" stroke="none">
<path d="M2100 1704 c-592 -378 -869 -555 -1130 -724 -107 -70 -260 -168 -340
-220 -268 -172 -571 -373 -568 -376 2 -1 23 1 48 6 25 5 173 32 330 60 289 52
421 77 453 86 13 4 17 16 17 54 0 47 2 50 43 73 23 14 103 59 177 102 968 555
1392 795 1403 795 7 0 17 -4 22 -9 6 -5 127 -78 270 -162 l260 -154 260 0 260
0 3 77 3 76 -43 30 c-24 16 -155 98 -293 182 -137 84 -346 213 -463 287 -117
73 -214 133 -215 133 -1 0 -225 -142 -497 -316z"/>
<path d="M3087 1833 c-23 -23 -4 -37 340 -252 90 -55 167 -101 173 -101 7 0
10 59 8 178 l-3 177 -256 3 c-140 1 -258 -1 -262 -5z"/>
<path d="M3705 1500 l-40 -5 0 -250 0 -250 255 0 255 0 3 253 2 252 -72 2
c-177 3 -366 3 -403 -2z"/>
<path d="M2410 1392 c-58 -33 -213 -117 -345 -189 -554 -301 -905 -498 -905
-509 0 -2 69 31 154 73 85 42 152 81 149 87 -3 5 -1 6 5 3 15 -10 43 3 35 16
-3 6 -1 7 5 3 6 -3 237 107 513 245 l503 251 147 -72 c88 -43 152 -69 160 -65
7 5 10 4 6 -2 -6 -10 156 -93 181 -93 6 0 12 6 12 13 0 17 -147 100 -161 91
-7 -4 -9 -3 -5 4 8 14 -259 166 -275 156 -8 -4 -9 -3 -5 5 5 7 -5 17 -28 26
-19 8 -37 15 -38 15 -2 0 -50 -26 -108 -58z"/>
<path d="M3335 1160 l-250 -5 0 -200 0 -200 260 0 260 0 3 201 c2 156 0 203
-10 205 -7 2 -125 2 -263 -1z"/>
<path d="M4242 943 l3 -218 248 0 247 -1 -245 3 -245 3 0 210 0 210 245 0 245
0 3 -197 3 -198 -1 200 0 200 -253 3 -252 2 2 -217z"/>
<path d="M2220 865 l0 -135 130 0 130 0 0 135 0 135 -130 0 -130 0 0 -135z"/>
<path d="M2540 865 l0 -136 130 3 131 3 5 133 4 132 -135 0 -135 0 0 -135z"/>
<path d="M3665 907 c-3 -7 -4 -107 -3 -222 l3 -210 258 -3 257 -2 -2 222 -3
223 -253 3 c-199 2 -254 0 -257 -11z"/>
<path d="M4823 793 c-10 -3 -12 -48 -11 -181 l2 -177 3 170 c3 115 7 171 15
176 7 4 111 8 232 9 121 0 222 3 225 5 6 7 -451 5 -466 -2z"/>
<path d="M5314 605 c0 -99 2 -138 3 -87 2 51 2 132 0 180 -1 48 -3 6 -3 -93z"/>
<path d="M2220 545 l0 -125 130 0 130 0 0 125 0 125 -130 0 -130 0 0 -125z"/>
<path d="M2540 545 l0 -126 131 3 131 3 -1 93 c0 50 0 106 -1 122 l0 30 -130
0 -130 0 0 -125z"/>
<path d="M4253 653 c-10 -3 -13 -52 -13 -194 l0 -189 243 0 c176 0 246 3 255
12 8 8 12 63 12 179 0 139 -3 170 -16 183 -13 14 -49 16 -242 15 -125 0 -233
-3 -239 -6z"/>
<path d="M4932 413 c59 -2 158 -2 220 0 62 1 14 3 -107 3 -121 0 -172 -2 -113
-3z"/>
</g>
</svg>
